<svg aria-roledescription="er" role="graphics-document document" viewBox="0 0 571.84375 640" style="max-width: 571.84375px;" xmlns="http://www.w3.org/2000/svg" width="100%" id="g"><style>#g{font-family:Archivo,Iansui,system-ui,sans-serif;font-size:16px;fill:#191A1C;}#g .error-icon{fill:#F6F4EF;}#g .error-text{fill:#090b10;stroke:#090b10;}#g .edge-thickness-normal{stroke-width:2px;}#g .edge-thickness-thick{stroke-width:3.5px;}#g .edge-pattern-solid{stroke-dasharray:0;}#g .edge-pattern-dashed{stroke-dasharray:3;}#g .edge-pattern-dotted{stroke-dasharray:2;}#g .marker{fill:#5C5E63;stroke:#5C5E63;}#g .marker.cross{stroke:#5C5E63;}#g svg{font-family:Archivo,Iansui,system-ui,sans-serif;font-size:16px;}#g .entityBox{fill:#F6F4EF;stroke:#CFCABC;}#g .attributeBoxOdd{fill:#ffffff;stroke:#CFCABC;}#g .attributeBoxEven{fill:#f2f2f2;stroke:#CFCABC;}#g .relationshipLabelBox{fill:#F6F4EF;opacity:0.7;background-color:#F6F4EF;}#g .relationshipLabelBox rect{opacity:0.5;}#g .relationshipLine{stroke:#5C5E63;}#g .entityTitleText{text-anchor:middle;font-size:18px;fill:#191A1C;}#g #MD_PARENT_START{fill:#f5f5f5!important;stroke:#5C5E63!important;stroke-width:1;}#g #MD_PARENT_END{fill:#f5f5f5!important;stroke:#5C5E63!important;stroke-width:1;}#g :root{--mermaid-font-family:"trebuchet ms",verdana,arial,sans-serif;}</style><g></g><defs><marker orient="auto" markerHeight="240" markerWidth="190" refY="7" refX="0" id="MD_PARENT_START"><path d="M 18,7 L9,13 L1,7 L9,1 Z"></path></marker></defs><defs><marker orient="auto" markerHeight="28" markerWidth="20" refY="7" refX="19" id="MD_PARENT_END"><path d="M 18,7 L9,13 L1,7 L9,1 Z"></path></marker></defs><defs><marker orient="auto" markerHeight="18" markerWidth="18" refY="9" refX="0" id="ONLY_ONE_START"><path d="M9,0 L9,18 M15,0 L15,18" fill="none" stroke="gray"></path></marker></defs><defs><marker orient="auto" markerHeight="18" markerWidth="18" refY="9" refX="18" id="ONLY_ONE_END"><path d="M3,0 L3,18 M9,0 L9,18" fill="none" stroke="gray"></path></marker></defs><defs><marker orient="auto" markerHeight="18" markerWidth="30" refY="9" refX="0" id="ZERO_OR_ONE_START"><circle r="6" cy="9" cx="21" fill="white" stroke="gray"></circle><path d="M9,0 L9,18" fill="none" stroke="gray"></path></marker></defs><defs><marker orient="auto" markerHeight="18" markerWidth="30" refY="9" refX="30" id="ZERO_OR_ONE_END"><circle r="6" cy="9" cx="9" fill="white" stroke="gray"></circle><path d="M21,0 L21,18" fill="none" stroke="gray"></path></marker></defs><defs><marker orient="auto" markerHeight="36" markerWidth="45" refY="18" refX="18" id="ONE_OR_MORE_START"><path d="M0,18 Q 18,0 36,18 Q 18,36 0,18 M42,9 L42,27" fill="none" stroke="gray"></path></marker></defs><defs><marker orient="auto" markerHeight="36" markerWidth="45" refY="18" refX="27" id="ONE_OR_MORE_END"><path d="M3,9 L3,27 M9,18 Q27,0 45,18 Q27,36 9,18" fill="none" stroke="gray"></path></marker></defs><defs><marker orient="auto" markerHeight="36" markerWidth="57" refY="18" refX="18" id="ZERO_OR_MORE_START"><circle r="6" cy="18" cx="48" fill="white" stroke="gray"></circle><path d="M0,18 Q18,0 36,18 Q18,36 0,18" fill="none" stroke="gray"></path></marker></defs><defs><marker orient="auto" markerHeight="36" markerWidth="57" refY="18" refX="39" id="ZERO_OR_MORE_END"><circle r="6" cy="18" cx="9" fill="white" stroke="gray"></circle><path d="M21,18 Q39,0 57,18 Q39,36 21,18" fill="none" stroke="gray"></path></marker></defs><path style="stroke: gray; fill: none;" marker-start="url(#ONLY_ONE_START)" marker-end="url(#ZERO_OR_MORE_END)" d="M176.873,95L169.73,103.333C162.587,111.667,148.301,128.333,141.158,145C134.016,161.667,134.016,178.333,134.016,186.667L134.016,195" class="er relationshipLine"></path><path style="stroke: gray; fill: none;" marker-start="url(#ZERO_OR_MORE_START)" marker-end="url(#ZERO_OR_MORE_END)" d="M134.016,270L134.016,278.333C134.016,286.667,134.016,303.333,151,321.45C167.984,339.566,201.953,359.133,218.938,368.916L235.922,378.699" class="er relationshipLine"></path><path style="stroke: gray; fill: none;" marker-start="url(#ZERO_OR_MORE_START)" marker-end="url(#ZERO_OR_MORE_END)" d="M241.158,95L248.301,103.333C255.444,111.667,269.73,128.333,276.873,151.25C284.016,174.167,284.016,203.333,284.016,232.5C284.016,261.667,284.016,290.833,284.197,313.75C284.379,336.667,284.742,353.333,284.923,361.667L285.105,370" class="er relationshipLine"></path><path style="stroke: gray; fill: none;" marker-start="url(#ONLY_ONE_START)" marker-end="url(#ZERO_OR_MORE_END)" d="M235.922,427.762L208.268,438.968C180.615,450.175,125.307,472.587,97.654,492.127C70,511.667,70,528.333,70,536.667L70,545" class="er relationshipLine"></path><path style="stroke: gray; fill: none;" marker-start="url(#ZERO_OR_MORE_START)" marker-end="url(#ZERO_OR_MORE_END)" d="M285.922,445L285.922,453.333C285.922,461.667,285.922,478.333,285.922,495C285.922,511.667,285.922,528.333,285.922,536.667L285.922,545" class="er relationshipLine"></path><path style="stroke: gray; fill: none;" marker-start="url(#ONLY_ONE_START)" marker-end="url(#ZERO_OR_MORE_END)" d="M335.922,427.762L363.576,438.968C391.229,450.175,446.536,472.587,474.19,492.127C501.844,511.667,501.844,528.333,501.844,536.667L501.844,545" class="er relationshipLine"></path><path style="stroke: gray; fill: none;" marker-start="url(#ZERO_OR_MORE_START)" marker-end="url(#ONLY_ONE_END)" d="M437.828,270L437.828,278.333C437.828,286.667,437.828,303.333,420.844,321.45C403.859,339.566,369.891,359.133,352.906,368.916L335.922,378.699" class="er relationshipLine"></path><g transform="translate(159.015625,20 )" id="entity-Topic-fe823971-3715-5962-88bf-ebbefe3baac2"><rect height="75" width="100" y="0" x="0" class="er entityBox"></rect><text style="dominant-baseline: middle; text-anchor: middle; font-size: 12px;" transform="translate(50,37.5)" y="0" x="0" id="text-entity-Topic-fe823971-3715-5962-88bf-ebbefe3baac2" class="er entityLabel">Topic</text></g><g transform="translate(84.015625,195 )" id="entity-Unit-c57ac1ea-0a24-509a-a80e-23f8c03ca739"><rect height="75" width="100" y="0" x="0" class="er entityBox"></rect><text style="dominant-baseline: middle; text-anchor: middle; font-size: 12px;" transform="translate(50,37.5)" y="0" x="0" id="text-entity-Unit-c57ac1ea-0a24-509a-a80e-23f8c03ca739" class="er entityLabel">Unit</text></g><g transform="translate(235.921875,370 )" id="entity-Word-dd42088e-3542-5802-a1af-4d57ba7a5e31"><rect height="75" width="100" y="0" x="0" class="er entityBox"></rect><text style="dominant-baseline: middle; text-anchor: middle; font-size: 12px;" transform="translate(50,37.5)" y="0" x="0" id="text-entity-Word-dd42088e-3542-5802-a1af-4d57ba7a5e31" class="er entityLabel">Word</text></g><g transform="translate(20,545 )" id="entity-Example-796673e3-c149-5793-9d7b-ab288625522f"><rect height="75" width="100" y="0" x="0" class="er entityBox"></rect><text style="dominant-baseline: middle; text-anchor: middle; font-size: 12px;" transform="translate(50,37.5)" y="0" x="0" id="text-entity-Example-796673e3-c149-5793-9d7b-ab288625522f" class="er entityLabel">Example</text></g><g transform="translate(220,545 )" id="entity-GrammarSection-78b74e65-8fa1-5517-9be7-97dd809f0d6f"><rect height="75" width="131.84375" y="0" x="0" class="er entityBox"></rect><text style="dominant-baseline: middle; text-anchor: middle; font-size: 12px;" transform="translate(65.921875,37.5)" y="0" x="0" id="text-entity-GrammarSection-78b74e65-8fa1-5517-9be7-97dd809f0d6f" class="er entityLabel">GrammarSection</text></g><g transform="translate(451.84375,545 )" id="entity-Relation-6432d902-68b6-541c-82c0-1ea593ff2675"><rect height="75" width="100" y="0" x="0" class="er entityBox"></rect><text style="dominant-baseline: middle; text-anchor: middle; font-size: 12px;" transform="translate(50,37.5)" y="0" x="0" id="text-entity-Relation-6432d902-68b6-541c-82c0-1ea593ff2675" class="er entityLabel">Relation</text></g><g transform="translate(384.015625,195 )" id="entity-LemmaIndex-638a5ef5-348d-5a06-a05a-02be83d56ac0"><rect height="75" width="107.625" y="0" x="0" class="er entityBox"></rect><text style="dominant-baseline: middle; text-anchor: middle; font-size: 12px;" transform="translate(53.8125,37.5)" y="0" x="0" id="text-entity-LemmaIndex-638a5ef5-348d-5a06-a05a-02be83d56ac0" class="er entityLabel">LemmaIndex</text></g><rect height="14" width="24" y="133.12542724609375" x="131.44174194335938" class="er relationshipLabelBox"></rect><text style="text-anchor: middle; dominant-baseline: middle; font-size: 12px;" y="140.12542724609375" x="143.44174194335938" id="rel1" class="er relationshipLabel">分成</text><rect height="14" width="115.90625" y="329.8145446777344" x="110.63194274902344" class="er relationshipLabelBox"></rect><text style="text-anchor: middle; dominant-baseline: middle; font-size: 12px;" y="336.8145446777344" x="168.58506774902344" id="rel2" class="er relationshipLabel">wordIds / units 雙向</text><rect height="14" width="143.859375" y="219.73239135742188" x="212.0841064453125" class="er relationshipLabelBox"></rect><text style="text-anchor: middle; dominant-baseline: middle; font-size: 12px;" y="226.73239135742188" x="284.0137939453125" id="rel3" class="er relationshipLabel">topics（一字可屬多主題）</text><rect height="14" width="57.90625" y="463.1095886230469" x="107.67002868652344" class="er relationshipLabelBox"></rect><text style="text-anchor: middle; dominant-baseline: middle; font-size: 12px;" y="470.1095886230469" x="136.62315368652344" id="rel4" class="er relationshipLabel">examples</text><rect height="14" width="183.609375" y="488" x="194.1173095703125" class="er relationshipLabelBox"></rect><text style="text-anchor: middle; dominant-baseline: middle; font-size: 12px;" y="495" x="285.9219970703125" id="rel5" class="er relationshipLabel">grammarRefs / relatedWordIds</text><rect height="14" width="96" y="463.1097717285156" x="387.2207946777344" class="er relationshipLabelBox"></rect><text style="text-anchor: middle; dominant-baseline: middle; font-size: 12px;" y="470.1097717285156" x="435.2207946777344" id="rel6" class="er relationshipLabel">反義・對照・同族</text><rect height="14" width="94.34375" y="329.8143005371094" x="356.0869140625" class="er relationshipLabelBox"></rect><text style="text-anchor: middle; dominant-baseline: middle; font-size: 12px;" y="336.8143005371094" x="403.2587890625" id="rel7" class="er relationshipLabel">變格形 → wordId</text></svg>